<svg version="1.1" id="Layer_1" xmlns="http://www.w3.org/2000/svg" x="0" y="0" viewBox="0 0 155.8 30" xml:space="preserve" enable-background="new 0 0 155.8 30"><style>.st1{fill-rule:evenodd;clip-rule:evenodd;fill:#fff}</style><defs><filter id="Adobe_OpacityMaskFilter" filterUnits="userSpaceOnUse" x="0" y="4.8" width="155.8" height="20.7"><feColorMatrix values="1 0 0 0 0 0 1 0 0 0 0 0 1 0 0 0 0 0 1 0"/></filter></defs><mask maskUnits="userSpaceOnUse" x="0" y="4.8" width="155.8" height="20.7" id="d_1_"><g filter="url(#Adobe_OpacityMaskFilter)"><path id="c_1_" class="st1" d="M0 40h160.9V0H0v40z"/></g></mask><path d="M105.8 25.2h2.6V4.8h-2.6M8.3 16.7v8.5H5.7v-8.5L0 4.8h2.7l4.3 9 4.3-8.9H14m32.3 14.2c0 3.1 1.4 4 4.4 4 3 0 4.4-.8 4.4-4V4.8h2.6V19c0 4.5-2.5 6.5-7 6.5s-7-2-7-6.5V4.8h2.6v14.3zm96.3-14.3h13.2v2.6h-5.2v17.8H148V7.4h-5.4" mask="url(#d_1_)" fill-rule="evenodd" clip-rule="evenodd" fill="#07001e"/><defs><filter id="Adobe_OpacityMaskFilter_1_" filterUnits="userSpaceOnUse" x="70.9" y="0" width="1.9" height="30"><feColorMatrix values="1 0 0 0 0 0 1 0 0 0 0 0 1 0 0 0 0 0 1 0"/></filter></defs><mask maskUnits="userSpaceOnUse" x="70.9" y="0" width="1.9" height="30" id="d_2_"><g filter="url(#Adobe_OpacityMaskFilter_1_)"><path id="c_2_" class="st1" d="M0 40h160.9V0H0v40z"/></g></mask><path d="M70.9 30h1.9V0h-1.9" mask="url(#d_2_)" fill-rule="evenodd" clip-rule="evenodd" fill="#00b5d1"/><defs><filter id="Adobe_OpacityMaskFilter_2_" filterUnits="userSpaceOnUse" x="85.3" y="4.5" width="51.6" height="21"><feColorMatrix values="1 0 0 0 0 0 1 0 0 0 0 0 1 0 0 0 0 0 1 0"/></filter></defs><mask maskUnits="userSpaceOnUse" x="85.3" y="4.5" width="51.6" height="21" id="d_3_"><g filter="url(#Adobe_OpacityMaskFilter_2_)"><path id="c_3_" class="st1" d="M0 40h160.9V0H0v40z"/></g></mask><path d="M126.7 7s-3.3-.5-5.3-.5c-2.7 0-3.7 1-3.7 3.4 0 2.5 1 2.9 4.1 3.6 3.7.9 5.5 2 5.5 5.7 0 4.1-1.9 6.2-6.1 6.2-2.3 0-5.8-.6-5.8-.6l.2-2.1s3.7.6 5.7.6c2.7 0 3.5-1.3 3.5-4 0-2.5-1.1-3-3.8-3.6-3.8-.9-5.7-2.3-5.8-5.8-.1-3.7 1-6.1 6.2-5.7 2.3.2 5.5.4 5.5.4l-.2 2.4zm7.6 18.2h2.6V4.8h-2.6m-35.5-.1l-5 20.5h-3.6l-5-20.5H88L92 22h.1l4-17.3" mask="url(#d_3_)" fill-rule="evenodd" clip-rule="evenodd" fill="#07001e"/><defs><filter id="Adobe_OpacityMaskFilter_3_" filterUnits="userSpaceOnUse" x="17.4" y="4.7" width="20.9" height="21"><feColorMatrix values="1 0 0 0 0 0 1 0 0 0 0 0 1 0 0 0 0 0 1 0"/></filter></defs><mask maskUnits="userSpaceOnUse" x="17.4" y="4.7" width="20.9" height="21" id="d_4_"><g filter="url(#Adobe_OpacityMaskFilter_3_)"><path id="c_4_" class="st1" d="M0 40h160.9V0H0v40z"/></g></mask><path d="M20.1 14.8c1 2.1 3.5 2.4 8 2.4 5.9 0 8.2-.6 8.2-5.1 0-1.1-.1-1.7-.4-2.3-.7-1.8-3.3-2.5-7.8-2.5-5.9 0-8.5.7-8.5 4.8 0 1.1.1 2 .5 2.7m8-10.1c4.8 0 7.9.6 9.3 2.9.7 1.1 1 2.6 1 4.5 0 6-3.1 7.4-10.3 7.4-5 0-8.2-.7-9.7-3.2-.6-1.1-.9-2.5-.9-4.3-.1-5.9 3.4-7.3 10.6-7.3M34 23.4c0-.3-.3-.4-.6-.4-.7.1-1.5.2-3.2.4-.6.1-2 .2-2.9.2-3.4.2-6.5-1-7.8-1.5h-.2c-.3 0-.5.2-.4.5v.2h.1c1.8 1.3 3.4 2.1 6 2.6.7.1 3.2.2 4.9-.2 1.5-.3 2.7-.9 3.8-1.5.2 0 .3-.1.3-.3" mask="url(#d_4_)" fill-rule="evenodd" clip-rule="evenodd" fill="#00b5d1"/></svg>